G04 EAGLE Gerber RS-274X export*
G75*
%MOMM*%
%FSLAX34Y34*%
%LPD*%
%IN*%
%IPPOS*%
%AMOC8*
5,1,8,0,0,1.08239X$1,22.5*%
G01*
%ADD10C,0.254000*%


D10*
X0Y0D02*
X800000Y0D01*
X800000Y1000000D01*
X0Y1000000D01*
X0Y0D01*
X110000Y240000D02*
X110019Y239564D01*
X110076Y239132D01*
X110170Y238706D01*
X110302Y238290D01*
X110468Y237887D01*
X110670Y237500D01*
X110904Y237132D01*
X111170Y236786D01*
X111464Y236464D01*
X111786Y236170D01*
X112132Y235904D01*
X112500Y235670D01*
X112887Y235468D01*
X113290Y235302D01*
X113706Y235170D01*
X114132Y235076D01*
X114564Y235019D01*
X115000Y235000D01*
X295000Y235000D01*
X295436Y235019D01*
X295868Y235076D01*
X296294Y235170D01*
X296710Y235302D01*
X297113Y235468D01*
X297500Y235670D01*
X297868Y235904D01*
X298214Y236170D01*
X298536Y236464D01*
X298830Y236786D01*
X299096Y237132D01*
X299330Y237500D01*
X299532Y237887D01*
X299698Y238290D01*
X299830Y238706D01*
X299924Y239132D01*
X299981Y239564D01*
X300000Y240000D01*
X299981Y240436D01*
X299924Y240868D01*
X299830Y241294D01*
X299698Y241710D01*
X299532Y242113D01*
X299330Y242500D01*
X299096Y242868D01*
X298830Y243214D01*
X298536Y243536D01*
X298214Y243830D01*
X297868Y244096D01*
X297500Y244330D01*
X297113Y244532D01*
X296710Y244698D01*
X296294Y244830D01*
X295868Y244924D01*
X295436Y244981D01*
X295000Y245000D01*
X120000Y245000D01*
X120000Y405000D01*
X295000Y405000D01*
X295436Y405019D01*
X295868Y405076D01*
X296294Y405170D01*
X296710Y405302D01*
X297113Y405468D01*
X297500Y405670D01*
X297868Y405904D01*
X298214Y406170D01*
X298536Y406464D01*
X298830Y406786D01*
X299096Y407132D01*
X299330Y407500D01*
X299532Y407887D01*
X299698Y408290D01*
X299830Y408706D01*
X299924Y409132D01*
X299981Y409564D01*
X300000Y410000D01*
X299981Y410436D01*
X299924Y410868D01*
X299830Y411294D01*
X299698Y411710D01*
X299532Y412113D01*
X299330Y412500D01*
X299096Y412868D01*
X298830Y413214D01*
X298536Y413536D01*
X298214Y413830D01*
X297868Y414096D01*
X297500Y414330D01*
X297113Y414532D01*
X296710Y414698D01*
X296294Y414830D01*
X295868Y414924D01*
X295436Y414981D01*
X295000Y415000D01*
X115000Y415000D01*
X114564Y414981D01*
X114132Y414924D01*
X113706Y414830D01*
X113290Y414698D01*
X112887Y414532D01*
X112500Y414330D01*
X112132Y414096D01*
X111786Y413830D01*
X111464Y413536D01*
X111170Y413214D01*
X110904Y412868D01*
X110670Y412500D01*
X110468Y412113D01*
X110302Y411710D01*
X110170Y411294D01*
X110076Y410868D01*
X110019Y410436D01*
X110000Y410000D01*
X110000Y240000D01*
X75000Y49299D02*
X74921Y47898D01*
X74764Y46504D01*
X74529Y45121D01*
X74217Y43753D01*
X73829Y42405D01*
X73365Y41081D01*
X72829Y39785D01*
X72220Y38521D01*
X71541Y37293D01*
X70795Y36105D01*
X69983Y34961D01*
X69108Y33864D01*
X68174Y32818D01*
X67182Y31826D01*
X66136Y30892D01*
X65039Y30017D01*
X63895Y29205D01*
X62707Y28459D01*
X61479Y27780D01*
X60215Y27171D01*
X58919Y26635D01*
X57595Y26171D01*
X56247Y25783D01*
X54879Y25471D01*
X53496Y25236D01*
X52102Y25079D01*
X50701Y25000D01*
X49299Y25000D01*
X47898Y25079D01*
X46504Y25236D01*
X45121Y25471D01*
X43753Y25783D01*
X42405Y26171D01*
X41081Y26635D01*
X39785Y27171D01*
X38521Y27780D01*
X37293Y28459D01*
X36105Y29205D01*
X34961Y30017D01*
X33864Y30892D01*
X32818Y31826D01*
X31826Y32818D01*
X30892Y33864D01*
X30017Y34961D01*
X29205Y36105D01*
X28459Y37293D01*
X27780Y38521D01*
X27171Y39785D01*
X26635Y41081D01*
X26171Y42405D01*
X25783Y43753D01*
X25471Y45121D01*
X25236Y46504D01*
X25079Y47898D01*
X25000Y49299D01*
X25000Y50701D01*
X25079Y52102D01*
X25236Y53496D01*
X25471Y54879D01*
X25783Y56247D01*
X26171Y57595D01*
X26635Y58919D01*
X27171Y60215D01*
X27780Y61479D01*
X28459Y62707D01*
X29205Y63895D01*
X30017Y65039D01*
X30892Y66136D01*
X31826Y67182D01*
X32818Y68174D01*
X33864Y69108D01*
X34961Y69983D01*
X36105Y70795D01*
X37293Y71541D01*
X38521Y72220D01*
X39785Y72829D01*
X41081Y73365D01*
X42405Y73829D01*
X43753Y74217D01*
X45121Y74529D01*
X46504Y74764D01*
X47898Y74921D01*
X49299Y75000D01*
X50701Y75000D01*
X52102Y74921D01*
X53496Y74764D01*
X54879Y74529D01*
X56247Y74217D01*
X57595Y73829D01*
X58919Y73365D01*
X60215Y72829D01*
X61479Y72220D01*
X62707Y71541D01*
X63895Y70795D01*
X65039Y69983D01*
X66136Y69108D01*
X67182Y68174D01*
X68174Y67182D01*
X69108Y66136D01*
X69983Y65039D01*
X70795Y63895D01*
X71541Y62707D01*
X72220Y61479D01*
X72829Y60215D01*
X73365Y58919D01*
X73829Y57595D01*
X74217Y56247D01*
X74529Y54879D01*
X74764Y53496D01*
X74921Y52102D01*
X75000Y50701D01*
X75000Y49299D01*
X775000Y49299D02*
X774921Y47898D01*
X774764Y46504D01*
X774529Y45121D01*
X774217Y43753D01*
X773829Y42405D01*
X773365Y41081D01*
X772829Y39785D01*
X772220Y38521D01*
X771541Y37293D01*
X770795Y36105D01*
X769983Y34961D01*
X769108Y33864D01*
X768174Y32818D01*
X767182Y31826D01*
X766136Y30892D01*
X765039Y30017D01*
X763895Y29205D01*
X762707Y28459D01*
X761479Y27780D01*
X760215Y27171D01*
X758919Y26635D01*
X757595Y26171D01*
X756247Y25783D01*
X754879Y25471D01*
X753496Y25236D01*
X752102Y25079D01*
X750701Y25000D01*
X749299Y25000D01*
X747898Y25079D01*
X746504Y25236D01*
X745121Y25471D01*
X743753Y25783D01*
X742405Y26171D01*
X741081Y26635D01*
X739785Y27171D01*
X738521Y27780D01*
X737293Y28459D01*
X736105Y29205D01*
X734961Y30017D01*
X733864Y30892D01*
X732818Y31826D01*
X731826Y32818D01*
X730892Y33864D01*
X730017Y34961D01*
X729205Y36105D01*
X728459Y37293D01*
X727780Y38521D01*
X727171Y39785D01*
X726635Y41081D01*
X726171Y42405D01*
X725783Y43753D01*
X725471Y45121D01*
X725236Y46504D01*
X725079Y47898D01*
X725000Y49299D01*
X725000Y50701D01*
X725079Y52102D01*
X725236Y53496D01*
X725471Y54879D01*
X725783Y56247D01*
X726171Y57595D01*
X726635Y58919D01*
X727171Y60215D01*
X727780Y61479D01*
X728459Y62707D01*
X729205Y63895D01*
X730017Y65039D01*
X730892Y66136D01*
X731826Y67182D01*
X732818Y68174D01*
X733864Y69108D01*
X734961Y69983D01*
X736105Y70795D01*
X737293Y71541D01*
X738521Y72220D01*
X739785Y72829D01*
X741081Y73365D01*
X742405Y73829D01*
X743753Y74217D01*
X745121Y74529D01*
X746504Y74764D01*
X747898Y74921D01*
X749299Y75000D01*
X750701Y75000D01*
X752102Y74921D01*
X753496Y74764D01*
X754879Y74529D01*
X756247Y74217D01*
X757595Y73829D01*
X758919Y73365D01*
X760215Y72829D01*
X761479Y72220D01*
X762707Y71541D01*
X763895Y70795D01*
X765039Y69983D01*
X766136Y69108D01*
X767182Y68174D01*
X768174Y67182D01*
X769108Y66136D01*
X769983Y65039D01*
X770795Y63895D01*
X771541Y62707D01*
X772220Y61479D01*
X772829Y60215D01*
X773365Y58919D01*
X773829Y57595D01*
X774217Y56247D01*
X774529Y54879D01*
X774764Y53496D01*
X774921Y52102D01*
X775000Y50701D01*
X775000Y49299D01*
X775000Y949299D02*
X774921Y947898D01*
X774764Y946504D01*
X774529Y945121D01*
X774217Y943753D01*
X773829Y942405D01*
X773365Y941081D01*
X772829Y939785D01*
X772220Y938521D01*
X771541Y937293D01*
X770795Y936105D01*
X769983Y934961D01*
X769108Y933864D01*
X768174Y932818D01*
X767182Y931826D01*
X766136Y930892D01*
X765039Y930017D01*
X763895Y929205D01*
X762707Y928459D01*
X761479Y927780D01*
X760215Y927171D01*
X758919Y926635D01*
X757595Y926171D01*
X756247Y925783D01*
X754879Y925471D01*
X753496Y925236D01*
X752102Y925079D01*
X750701Y925000D01*
X749299Y925000D01*
X747898Y925079D01*
X746504Y925236D01*
X745121Y925471D01*
X743753Y925783D01*
X742405Y926171D01*
X741081Y926635D01*
X739785Y927171D01*
X738521Y927780D01*
X737293Y928459D01*
X736105Y929205D01*
X734961Y930017D01*
X733864Y930892D01*
X732818Y931826D01*
X731826Y932818D01*
X730892Y933864D01*
X730017Y934961D01*
X729205Y936105D01*
X728459Y937293D01*
X727780Y938521D01*
X727171Y939785D01*
X726635Y941081D01*
X726171Y942405D01*
X725783Y943753D01*
X725471Y945121D01*
X725236Y946504D01*
X725079Y947898D01*
X725000Y949299D01*
X725000Y950701D01*
X725079Y952102D01*
X725236Y953496D01*
X725471Y954879D01*
X725783Y956247D01*
X726171Y957595D01*
X726635Y958919D01*
X727171Y960215D01*
X727780Y961479D01*
X728459Y962707D01*
X729205Y963895D01*
X730017Y965039D01*
X730892Y966136D01*
X731826Y967182D01*
X732818Y968174D01*
X733864Y969108D01*
X734961Y969983D01*
X736105Y970795D01*
X737293Y971541D01*
X738521Y972220D01*
X739785Y972829D01*
X741081Y973365D01*
X742405Y973829D01*
X743753Y974217D01*
X745121Y974529D01*
X746504Y974764D01*
X747898Y974921D01*
X749299Y975000D01*
X750701Y975000D01*
X752102Y974921D01*
X753496Y974764D01*
X754879Y974529D01*
X756247Y974217D01*
X757595Y973829D01*
X758919Y973365D01*
X760215Y972829D01*
X761479Y972220D01*
X762707Y971541D01*
X763895Y970795D01*
X765039Y969983D01*
X766136Y969108D01*
X767182Y968174D01*
X768174Y967182D01*
X769108Y966136D01*
X769983Y965039D01*
X770795Y963895D01*
X771541Y962707D01*
X772220Y961479D01*
X772829Y960215D01*
X773365Y958919D01*
X773829Y957595D01*
X774217Y956247D01*
X774529Y954879D01*
X774764Y953496D01*
X774921Y952102D01*
X775000Y950701D01*
X775000Y949299D01*
X75000Y949299D02*
X74921Y947898D01*
X74764Y946504D01*
X74529Y945121D01*
X74217Y943753D01*
X73829Y942405D01*
X73365Y941081D01*
X72829Y939785D01*
X72220Y938521D01*
X71541Y937293D01*
X70795Y936105D01*
X69983Y934961D01*
X69108Y933864D01*
X68174Y932818D01*
X67182Y931826D01*
X66136Y930892D01*
X65039Y930017D01*
X63895Y929205D01*
X62707Y928459D01*
X61479Y927780D01*
X60215Y927171D01*
X58919Y926635D01*
X57595Y926171D01*
X56247Y925783D01*
X54879Y925471D01*
X53496Y925236D01*
X52102Y925079D01*
X50701Y925000D01*
X49299Y925000D01*
X47898Y925079D01*
X46504Y925236D01*
X45121Y925471D01*
X43753Y925783D01*
X42405Y926171D01*
X41081Y926635D01*
X39785Y927171D01*
X38521Y927780D01*
X37293Y928459D01*
X36105Y929205D01*
X34961Y930017D01*
X33864Y930892D01*
X32818Y931826D01*
X31826Y932818D01*
X30892Y933864D01*
X30017Y934961D01*
X29205Y936105D01*
X28459Y937293D01*
X27780Y938521D01*
X27171Y939785D01*
X26635Y941081D01*
X26171Y942405D01*
X25783Y943753D01*
X25471Y945121D01*
X25236Y946504D01*
X25079Y947898D01*
X25000Y949299D01*
X25000Y950701D01*
X25079Y952102D01*
X25236Y953496D01*
X25471Y954879D01*
X25783Y956247D01*
X26171Y957595D01*
X26635Y958919D01*
X27171Y960215D01*
X27780Y961479D01*
X28459Y962707D01*
X29205Y963895D01*
X30017Y965039D01*
X30892Y966136D01*
X31826Y967182D01*
X32818Y968174D01*
X33864Y969108D01*
X34961Y969983D01*
X36105Y970795D01*
X37293Y971541D01*
X38521Y972220D01*
X39785Y972829D01*
X41081Y973365D01*
X42405Y973829D01*
X43753Y974217D01*
X45121Y974529D01*
X46504Y974764D01*
X47898Y974921D01*
X49299Y975000D01*
X50701Y975000D01*
X52102Y974921D01*
X53496Y974764D01*
X54879Y974529D01*
X56247Y974217D01*
X57595Y973829D01*
X58919Y973365D01*
X60215Y972829D01*
X61479Y972220D01*
X62707Y971541D01*
X63895Y970795D01*
X65039Y969983D01*
X66136Y969108D01*
X67182Y968174D01*
X68174Y967182D01*
X69108Y966136D01*
X69983Y965039D01*
X70795Y963895D01*
X71541Y962707D01*
X72220Y961479D01*
X72829Y960215D01*
X73365Y958919D01*
X73829Y957595D01*
X74217Y956247D01*
X74529Y954879D01*
X74764Y953496D01*
X74921Y952102D01*
X75000Y950701D01*
X75000Y949299D01*
M02*
