G04 EAGLE Gerber RS-274X export*
G75*
%MOMM*%
%FSLAX34Y34*%
%LPD*%
%INSoldermask Bottom*%
%IPPOS*%
%AMOC8*
5,1,8,0,0,1.08239X$1,22.5*%
G01*
%ADD10C,5.203200*%
%ADD11P,1.979475X8X292.500000*%
%ADD12P,1.979475X8X112.500000*%
%ADD13C,1.828800*%
%ADD14P,2.144431X8X22.500000*%
%ADD15C,2.108200*%
%ADD16C,2.870200*%
%ADD17P,1.759533X8X292.500000*%
%ADD18P,1.979475X8X202.500000*%
%ADD19P,2.144431X8X112.500000*%


D10*
X50000Y50000D03*
X750000Y50000D03*
X750000Y950000D03*
X50000Y950000D03*
D11*
X781900Y243500D03*
X781900Y218100D03*
X781900Y192700D03*
X781900Y167300D03*
X781900Y141900D03*
X781900Y116500D03*
X756500Y243500D03*
X756500Y218100D03*
X756500Y192700D03*
X756500Y167300D03*
X756500Y141900D03*
X756500Y116500D03*
D12*
X18100Y116500D03*
X18100Y141900D03*
X18100Y167300D03*
X18100Y192700D03*
X18100Y218100D03*
X18100Y243500D03*
X43500Y116500D03*
X43500Y141900D03*
X43500Y167300D03*
X43500Y192700D03*
X43500Y218100D03*
X43500Y243500D03*
D13*
X81872Y812700D02*
X98128Y812700D01*
X98128Y787300D02*
X81872Y787300D01*
X166872Y812700D02*
X183128Y812700D01*
X183128Y787300D02*
X166872Y787300D01*
D12*
X87700Y504600D03*
X62300Y504600D03*
X87700Y530000D03*
X62300Y530000D03*
X87700Y555400D03*
X62300Y555400D03*
X167700Y504600D03*
X142300Y504600D03*
X167700Y530000D03*
X142300Y530000D03*
X167700Y555400D03*
X142300Y555400D03*
D13*
X271872Y812700D02*
X288128Y812700D01*
X288128Y787300D02*
X271872Y787300D01*
X356872Y812700D02*
X373128Y812700D01*
X373128Y787300D02*
X356872Y787300D01*
D12*
X277700Y504600D03*
X252300Y504600D03*
X277700Y530000D03*
X252300Y530000D03*
X277700Y555400D03*
X252300Y555400D03*
X357700Y504600D03*
X332300Y504600D03*
X357700Y530000D03*
X332300Y530000D03*
X357700Y555400D03*
X332300Y555400D03*
D13*
X461872Y812700D02*
X478128Y812700D01*
X478128Y787300D02*
X461872Y787300D01*
X546872Y812700D02*
X563128Y812700D01*
X563128Y787300D02*
X546872Y787300D01*
D12*
X467700Y504600D03*
X442300Y504600D03*
X467700Y530000D03*
X442300Y530000D03*
X467700Y555400D03*
X442300Y555400D03*
X547700Y504600D03*
X522300Y504600D03*
X547700Y530000D03*
X522300Y530000D03*
X547700Y555400D03*
X522300Y555400D03*
D13*
X651872Y812700D02*
X668128Y812700D01*
X668128Y787300D02*
X651872Y787300D01*
X736872Y812700D02*
X753128Y812700D01*
X753128Y787300D02*
X736872Y787300D01*
D12*
X657700Y504600D03*
X632300Y504600D03*
X657700Y530000D03*
X632300Y530000D03*
X657700Y555400D03*
X632300Y555400D03*
X737700Y504600D03*
X712300Y504600D03*
X737700Y530000D03*
X712300Y530000D03*
X737700Y555400D03*
X712300Y555400D03*
D14*
X612500Y902500D03*
X587500Y952500D03*
X562500Y902500D03*
X537500Y952500D03*
X512500Y902500D03*
X487500Y952500D03*
X462500Y902500D03*
X437500Y952500D03*
X412500Y902500D03*
X387500Y952500D03*
X362500Y902500D03*
X337500Y952500D03*
X312500Y902500D03*
X287500Y952500D03*
X262500Y902500D03*
X237500Y952500D03*
X212500Y902500D03*
X187500Y952500D03*
D13*
X153128Y167700D02*
X136872Y167700D01*
X136872Y142300D02*
X153128Y142300D01*
X224600Y123128D02*
X224600Y106872D01*
X250000Y106872D02*
X250000Y123128D01*
X275400Y123128D02*
X275400Y106872D01*
D15*
X50000Y310000D03*
D16*
X24501Y284501D03*
X24501Y335499D03*
X75499Y335499D03*
X75499Y284501D03*
D17*
X658750Y141450D03*
X677800Y128750D03*
X658750Y116050D03*
D18*
X463500Y18100D03*
X438100Y18100D03*
X412700Y18100D03*
X387300Y18100D03*
X361900Y18100D03*
X336500Y18100D03*
X463500Y43500D03*
X438100Y43500D03*
X412700Y43500D03*
X387300Y43500D03*
X361900Y43500D03*
X336500Y43500D03*
D19*
X184100Y981900D03*
X209500Y981900D03*
X234900Y981900D03*
X260300Y981900D03*
X285700Y981900D03*
X311100Y981900D03*
X336500Y981900D03*
X361900Y981900D03*
X387300Y981900D03*
X412700Y981900D03*
X438100Y981900D03*
X463500Y981900D03*
X488900Y981900D03*
X514300Y981900D03*
X539700Y981900D03*
X565100Y981900D03*
X590500Y981900D03*
X615900Y981900D03*
D13*
X637300Y90628D02*
X637300Y74372D01*
X662700Y74372D02*
X662700Y90628D01*
M02*
